<?xml version="1.0" encoding="UTF-8"?>
<!DOCTYPE svg PUBLIC "-//W3C//DTD SVG 1.1//EN" "http://www.w3.org/Graphics/SVG/1.1/DTD/svg11.dtd">
<svg xmlns="http://www.w3.org/2000/svg" version="1.1" width="16px" height="16px" style="shape-rendering:geometricPrecision; text-rendering:geometricPrecision; image-rendering:optimizeQuality; fill-rule:evenodd; clip-rule:evenodd" xmlns:xlink="http://www.w3.org/1999/xlink">
<g><path style="opacity:0.896" fill="#0076b6" d="M -0.5,-0.5 C 4.83333,-0.5 10.1667,-0.5 15.5,-0.5C 15.5,4.83333 15.5,10.1667 15.5,15.5C 10.1667,15.5 4.83333,15.5 -0.5,15.5C -0.5,10.1667 -0.5,4.83333 -0.5,-0.5 Z M 2.5,1.5 C 3.28913,1.78281 3.9558,2.28281 4.5,3C 3.18398,3.52811 2.51731,3.02811 2.5,1.5 Z M 6.5,5.5 C 7.80163,6.80686 9.13497,6.80686 10.5,5.5C 13.5052,7.50284 14.1719,10.1695 12.5,13.5C 11.5344,11.604 11.2011,9.60395 11.5,7.5C 10.1779,7.33003 9.01127,7.66337 8,8.5C 7.66667,10.1667 7.33333,11.8333 7,13.5C 6.50258,10.854 6.33591,8.1873 6.5,5.5 Z"/></g>
</svg>
